<svg width="120" height="120" viewBox="0 0 120 120" xmlns="http://www.w3.org/2000/svg">
  <!-- Background circle -->
  <circle cx="60" cy="60" r="60" fill="#E3F2FD"/>
  
  <!-- Head -->
  <circle cx="60" cy="45" r="25" fill="#FFE0B2"/>
  
  <!-- Braids -->
  <path d="M35 35 Q40 25 50 30 Q55 20 65 25 Q70 15 80 20 Q85 30 85 35 Q85 45 80 50 Q60 40 40 50 Q35 45 35 35" fill="#8D6E63"/>
  <path d="M30 40 Q25 50 30 60 Q35 70 40 65" fill="#8D6E63"/>
  <path d="M90 40 Q95 50 90 60 Q85 70 80 65" fill="#8D6E63"/>
  
  <!-- Eyes -->
  <circle cx="50" cy="45" r="3" fill="#424242"/>
  <circle cx="70" cy="45" r="3" fill="#424242"/>
  
  <!-- Nose -->
  <ellipse cx="60" cy="52" rx="2" ry="3" fill="#FFCCBC"/>
  
  <!-- Mouth -->
  <path d="M55 58 Q60 62 65 58" fill="none" stroke="#424242" stroke-width="2" stroke-linecap="round"/>
  
  <!-- Dress -->
  <path d="M45 70 L75 70 L80 85 L40 85 Z" fill="#2196F3"/>
  
  <!-- Collar -->
  <path d="M50 70 L60 75 L70 70" fill="#1976D2"/>
</svg>
