<svg width="120" height="120" viewBox="0 0 120 120" xmlns="http://www.w3.org/2000/svg">
  <!-- Background circle -->
  <circle cx="60" cy="60" r="60" fill="#FFF3E0"/>
  
  <!-- Head -->
  <circle cx="60" cy="45" r="25" fill="#FFE0B2"/>
  
  <!-- Cap -->
  <path d="M35 35 Q60 25 85 35 Q85 40 80 45 Q60 35 40 45 Q35 40 35 35" fill="#F44336"/>
  <ellipse cx="60" cy="35" rx="25" ry="8" fill="#D32F2F"/>
  
  <!-- Eyes -->
  <circle cx="50" cy="45" r="3" fill="#424242"/>
  <circle cx="70" cy="45" r="3" fill="#424242"/>
  
  <!-- Nose -->
  <ellipse cx="60" cy="52" rx="2" ry="3" fill="#FFCCBC"/>
  
  <!-- Mouth -->
  <path d="M55 58 Q60 62 65 58" fill="none" stroke="#424242" stroke-width="2" stroke-linecap="round"/>
  
  <!-- Shirt -->
  <path d="M45 70 L75 70 L80 85 L40 85 Z" fill="#F44336"/>
  
  <!-- Collar -->
  <path d="M50 70 L60 75 L70 70" fill="#D32F2F"/>
</svg>
